<svg width="581" height="583" viewBox="0 0 581 583" fill="none" xmlns="http://www.w3.org/2000/svg">
<path d="M479 581H108.5L2.5 3L108.5 59L199.5 3L293 59L384 3L479 59L578 3L479 581Z" fill="#E10000" stroke="white" stroke-width="3"/>
<path d="M189 10H210" stroke="black"/>
<path d="M97 515L109 580.5H117H118.5V53.5L108.5 59.5L97 53.5V515Z" fill="white"/>
<path d="M304 53L295 59L284 53V581H304V53Z" fill="white"/>
<path d="M492 52V502L478.565 580.5H466V52L479 59.5L492 52Z" fill="white"/>
<path d="M199.5 3.5L189 10V580.5H210V10L199.5 3.5Z" fill="white"/>
<path d="M384.5 3L374 9.5V580H395V9.5L384.5 3Z" fill="white"/>
</svg>
